<?xml version="1.0" encoding="UTF-8" standalone="no"?>
<!-- Generator: Adobe Illustrator 16.0.0, SVG Export Plug-In . SVG Version: 6.00 Build 0)  -->

<svg
   xmlns:dc="http://purl.org/dc/elements/1.1/"
   xmlns:cc="http://creativecommons.org/ns#"
   xmlns:rdf="http://www.w3.org/1999/02/22-rdf-syntax-ns#"
   xmlns:svg="http://www.w3.org/2000/svg"
   xmlns="http://www.w3.org/2000/svg"
   xmlns:sodipodi="http://sodipodi.sourceforge.net/DTD/sodipodi-0.dtd"
   xmlns:inkscape="http://www.inkscape.org/namespaces/inkscape"
   version="1.1"
   id="Capa_1"
   x="0px"
   y="0px"
   width="40"
   height="40"
   viewBox="0 0 40 40"
   xml:space="preserve"
   inkscape:version="0.91 r13725"
   sodipodi:docname="power.svg"><metadata
   id="metadata41"><rdf:RDF><cc:Work
       rdf:about=""><dc:format>image/svg+xml</dc:format><dc:type
         rdf:resource="http://purl.org/dc/dcmitype/StillImage" /><dc:title></dc:title></cc:Work></rdf:RDF></metadata><defs
   id="defs39"><marker
     inkscape:stockid="Arrow1Lstart"
     orient="auto"
     refY="0.0"
     refX="0.0"
     id="marker4505"
     style="overflow:visible"
     inkscape:isstock="true"><path
       id="path4507"
       d="M 0.0,0.0 L 5.0,-5.0 L -12.5,0.0 L 5.0,5.0 L 0.0,0.0 z "
       style="fill-rule:evenodd;stroke:none;stroke-width:1pt;stroke-opacity:1;fill:#ffffff;fill-opacity:1"
       transform="scale(0.8) translate(12.5,0)" /></marker><marker
     inkscape:stockid="Arrow1Lstart"
     orient="auto"
     refY="0.0"
     refX="0.0"
     id="marker4477"
     style="overflow:visible"
     inkscape:isstock="true"><path
       id="path4479"
       d="M 0.0,0.0 L 5.0,-5.0 L -12.5,0.0 L 5.0,5.0 L 0.0,0.0 z "
       style="fill-rule:evenodd;stroke:none;stroke-width:1pt;stroke-opacity:1;fill:#000000;fill-opacity:1"
       transform="scale(0.8) translate(12.5,0)" /></marker><marker
     inkscape:stockid="Arrow1Lstart"
     orient="auto"
     refY="0.0"
     refX="0.0"
     id="marker4443"
     style="overflow:visible"
     inkscape:isstock="true"><path
       id="path4445"
       d="M 0.0,0.0 L 5.0,-5.0 L -12.5,0.0 L 5.0,5.0 L 0.0,0.0 z "
       style="fill-rule:evenodd;stroke:none;stroke-width:1pt;stroke-opacity:1;fill:#000000;fill-opacity:1"
       transform="scale(0.8) translate(12.5,0)" /></marker><marker
     inkscape:stockid="Arrow1Lstart"
     orient="auto"
     refY="0.0"
     refX="0.0"
     id="Arrow1Lstart"
     style="overflow:visible"
     inkscape:isstock="true"><path
       id="path4173"
       d="M 0.0,0.0 L 5.0,-5.0 L -12.5,0.0 L 5.0,5.0 L 0.0,0.0 z "
       style="fill-rule:evenodd;stroke:none;stroke-width:1pt;stroke-opacity:1;fill:#000000;fill-opacity:1"
       transform="scale(0.8) translate(12.5,0)" /></marker></defs><sodipodi:namedview
   pagecolor="#ffffff"
   bordercolor="#666666"
   borderopacity="1"
   objecttolerance="10"
   gridtolerance="10"
   guidetolerance="10"
   inkscape:pageopacity="0"
   inkscape:pageshadow="2"
   inkscape:window-width="1366"
   inkscape:window-height="705"
   id="namedview37"
   showgrid="false"
   inkscape:zoom="14.75"
   inkscape:cx="34.986878"
   inkscape:cy="11.016785"
   inkscape:window-x="-8"
   inkscape:window-y="-8"
   inkscape:window-maximized="1"
   inkscape:current-layer="Capa_1" />
<g
   id="g3"
   transform="matrix(0.04464286,0,0,0.04464286,8.5714285,9.1428557)">
	<path
   d="m 320,73.294 0,67.979 c 18.104,7.902 34.75,19.204 49.137,33.59 30.22,30.22 46.863,70.4 46.863,113.137 0,42.736 -16.643,82.917 -46.863,113.137 C 338.916,431.357 298.738,448 256,448 213.262,448 173.083,431.357 142.863,401.137 112.643,370.917 96,330.736 96,288 96,245.263 112.643,205.083 142.863,174.863 157.25,160.476 173.897,149.174 192,141.272 l 0,-67.978 C 99.476,100.834 32,186.53 32,288 32,411.712 132.289,512 256,512 379.713,512 480,411.712 480,288 480,186.53 412.525,100.834 320,73.294 Z M 224,0 l 64,0 0,256 -64,0 0,-256 z"
   id="path5"
   inkscape:connector-curvature="0"
   style="marker-end:url(#marker4505);stroke-width:1.00799994;stroke-miterlimit:4;stroke-dasharray:none;stroke:none;fill:#ffffff;fill-opacity:1;stroke-opacity:1;stroke-linecap:butt;stroke-linejoin:miter" />
</g>
<g
   id="g7"
   transform="translate(0,-472)">
</g>
<g
   id="g9"
   transform="translate(0,-472)">
</g>
<g
   id="g11"
   transform="translate(0,-472)">
</g>
<g
   id="g13"
   transform="translate(0,-472)">
</g>
<g
   id="g15"
   transform="translate(0,-472)">
</g>
<g
   id="g17"
   transform="translate(0,-472)">
</g>
<g
   id="g19"
   transform="translate(0,-472)">
</g>
<g
   id="g21"
   transform="translate(0,-472)">
</g>
<g
   id="g23"
   transform="translate(0,-472)">
</g>
<g
   id="g25"
   transform="translate(0,-472)">
</g>
<g
   id="g27"
   transform="translate(0,-472)">
</g>
<g
   id="g29"
   transform="translate(0,-472)">
</g>
<g
   id="g31"
   transform="translate(0,-472)">
</g>
<g
   id="g33"
   transform="translate(0,-472)">
</g>
<g
   id="g35"
   transform="translate(0,-472)">
</g>
</svg>